%FSLAX46Y46*%
G04 Gerber Fmt 4.6, Leading zero omitted, Abs format (unit mm)*
G04 Created by KiCad (PCBNEW (2014-09-02 BZR 5112)-product) date 2015-02-16 11:39:03 AM*
%MOMM*%
G01*
G04 APERTURE LIST*
%ADD10C,0.500000*%
%ADD11R,1.270000X1.270000*%
%ADD12C,1.270000*%
%ADD13C,2.052000*%
%ADD14R,2.052000X2.052000*%
%ADD15R,1.544000X1.544000*%
%ADD16C,1.544000*%
%ADD17R,0.721040X1.020760*%
%ADD18C,1.420000*%
%ADD19R,0.528000X0.324800*%
%ADD20C,2.520000*%
%ADD21R,0.401000X1.290000*%
%ADD22C,3.322000*%
%ADD23C,2.020000*%
%ADD24R,0.832800X1.163000*%
%ADD25R,1.163000X0.832800*%
%ADD26O,2.820000X3.520000*%
%ADD27C,1.770000*%
%ADD28R,1.220000X1.220000*%
%ADD29C,1.220000*%
%ADD30C,2.560000*%
%ADD31R,1.218880X1.218880*%
G04 APERTURE END LIST*
D10*
D11*
X178000000Y-14500000D03*
D12*
X178000000Y-12500000D03*
D13*
X92960000Y-145770000D03*
X95500000Y-145770000D03*
D14*
X98040000Y-145770000D03*
D13*
X92960000Y-143230000D03*
X95500000Y-143230000D03*
X98040000Y-143230000D03*
D15*
X171130000Y-9770000D03*
D16*
X171130000Y-7230000D03*
X158430000Y-9770000D03*
X168590000Y-7230000D03*
X155890000Y-9770000D03*
X166050000Y-7230000D03*
X153350000Y-9770000D03*
X163510000Y-7230000D03*
X150810000Y-9770000D03*
X160970000Y-7230000D03*
X148270000Y-9770000D03*
X158430000Y-7230000D03*
X145730000Y-9770000D03*
X155890000Y-7230000D03*
X143190000Y-9770000D03*
X153350000Y-7230000D03*
X140650000Y-9770000D03*
X150810000Y-7230000D03*
X138110000Y-9770000D03*
X148270000Y-7230000D03*
X135570000Y-9770000D03*
X145730000Y-7230000D03*
X133030000Y-9770000D03*
X143190000Y-7230000D03*
X140650000Y-7230000D03*
X130490000Y-9770000D03*
X138110000Y-7230000D03*
X133030000Y-7230000D03*
X130490000Y-7230000D03*
X127950000Y-7230000D03*
X125410000Y-7230000D03*
X127950000Y-9770000D03*
X125410000Y-9770000D03*
X168590000Y-9770000D03*
X166050000Y-9770000D03*
X163510000Y-9770000D03*
X160970000Y-9770000D03*
X122870000Y-9770000D03*
X122870000Y-7230000D03*
X135570000Y-7230000D03*
D17*
X28500000Y-92730000D03*
X29452500Y-95270000D03*
X27547500Y-95270000D03*
X187500000Y-91230000D03*
X188452500Y-93770000D03*
X186547500Y-93770000D03*
D18*
X184500000Y-10000000D03*
X184500000Y-12540000D03*
X184500000Y-7460000D03*
D19*
X191016000Y-112135000D03*
X191016000Y-110865000D03*
X188984000Y-112135000D03*
X191016000Y-111500000D03*
X188984000Y-110865000D03*
D20*
X87000000Y-118500000D03*
X78000000Y-48500000D03*
X96500000Y-118500000D03*
X91000000Y-118500000D03*
X92000000Y-127500000D03*
D21*
X52724160Y-91799080D03*
X53374400Y-91799080D03*
X54024640Y-91799080D03*
X54674880Y-91799080D03*
X55325120Y-91799080D03*
X55975360Y-91799080D03*
X56625600Y-91799080D03*
X57275840Y-91799080D03*
X57275840Y-86200920D03*
X56625600Y-86200920D03*
X55975360Y-86200920D03*
X55325120Y-86200920D03*
X54674880Y-86200920D03*
X54024640Y-86200920D03*
X53374400Y-86200920D03*
X52724160Y-86200920D03*
X52724160Y-121299080D03*
X53374400Y-121299080D03*
X54024640Y-121299080D03*
X54674880Y-121299080D03*
X55325120Y-121299080D03*
X55975360Y-121299080D03*
X56625600Y-121299080D03*
X57275840Y-121299080D03*
X57275840Y-115700920D03*
X56625600Y-115700920D03*
X55975360Y-115700920D03*
X55325120Y-115700920D03*
X54674880Y-115700920D03*
X54024640Y-115700920D03*
X53374400Y-115700920D03*
X52724160Y-115700920D03*
X48224160Y-57799080D03*
X48874400Y-57799080D03*
X49524640Y-57799080D03*
X50174880Y-57799080D03*
X50825120Y-57799080D03*
X51475360Y-57799080D03*
X52125600Y-57799080D03*
X52775840Y-57799080D03*
X52775840Y-52200920D03*
X52125600Y-52200920D03*
X51475360Y-52200920D03*
X50825120Y-52200920D03*
X50174880Y-52200920D03*
X49524640Y-52200920D03*
X48874400Y-52200920D03*
X48224160Y-52200920D03*
X18724160Y-37799080D03*
X19374400Y-37799080D03*
X20024640Y-37799080D03*
X20674880Y-37799080D03*
X21325120Y-37799080D03*
X21975360Y-37799080D03*
X22625600Y-37799080D03*
X23275840Y-37799080D03*
X23275840Y-32200920D03*
X22625600Y-32200920D03*
X21975360Y-32200920D03*
X21325120Y-32200920D03*
X20674880Y-32200920D03*
X20024640Y-32200920D03*
X19374400Y-32200920D03*
X18724160Y-32200920D03*
X73724160Y-57799080D03*
X74374400Y-57799080D03*
X75024640Y-57799080D03*
X75674880Y-57799080D03*
X76325120Y-57799080D03*
X76975360Y-57799080D03*
X77625600Y-57799080D03*
X78275840Y-57799080D03*
X78275840Y-52200920D03*
X77625600Y-52200920D03*
X76975360Y-52200920D03*
X76325120Y-52200920D03*
X75674880Y-52200920D03*
X75024640Y-52200920D03*
X74374400Y-52200920D03*
X73724160Y-52200920D03*
X75224160Y-121299080D03*
X75874400Y-121299080D03*
X76524640Y-121299080D03*
X77174880Y-121299080D03*
X77825120Y-121299080D03*
X78475360Y-121299080D03*
X79125600Y-121299080D03*
X79775840Y-121299080D03*
X79775840Y-115700920D03*
X79125600Y-115700920D03*
X78475360Y-115700920D03*
X77825120Y-115700920D03*
X77174880Y-115700920D03*
X76524640Y-115700920D03*
X75874400Y-115700920D03*
X75224160Y-115700920D03*
X19724160Y-121299080D03*
X20374400Y-121299080D03*
X21024640Y-121299080D03*
X21674880Y-121299080D03*
X22325120Y-121299080D03*
X22975360Y-121299080D03*
X23625600Y-121299080D03*
X24275840Y-121299080D03*
X24275840Y-115700920D03*
X23625600Y-115700920D03*
X22975360Y-115700920D03*
X22325120Y-115700920D03*
X21674880Y-115700920D03*
X21024640Y-115700920D03*
X20374400Y-115700920D03*
X19724160Y-115700920D03*
D22*
X8000000Y-24000000D03*
X8500000Y-122000000D03*
X195000000Y-130500000D03*
X195000000Y-5000000D03*
D23*
X157000000Y-137300000D03*
X157000000Y-142700000D03*
X153750000Y-137750000D03*
X153750000Y-142250000D03*
X160250000Y-137750000D03*
X160250000Y-142250000D03*
X135000000Y-137300000D03*
X135000000Y-142700000D03*
X131750000Y-137750000D03*
X131750000Y-142250000D03*
X138250000Y-137750000D03*
X138250000Y-142250000D03*
X55000000Y-137700000D03*
X55000000Y-132300000D03*
X58250000Y-137250000D03*
X58250000Y-132750000D03*
X51750000Y-137250000D03*
X51750000Y-132750000D03*
X55000000Y-107700000D03*
X55000000Y-102300000D03*
X58250000Y-107250000D03*
X58250000Y-102750000D03*
X51750000Y-107250000D03*
X51750000Y-102750000D03*
X30000000Y-84200000D03*
X30000000Y-78800000D03*
X33250000Y-83750000D03*
X33250000Y-79250000D03*
X26750000Y-83750000D03*
X26750000Y-79250000D03*
X30000000Y-71200000D03*
X30000000Y-65800000D03*
X33250000Y-70750000D03*
X33250000Y-66250000D03*
X26750000Y-70750000D03*
X26750000Y-66250000D03*
X30000000Y-44200000D03*
X30000000Y-38800000D03*
X33250000Y-43750000D03*
X33250000Y-39250000D03*
X26750000Y-43750000D03*
X26750000Y-39250000D03*
X30000000Y-31200000D03*
X30000000Y-25800000D03*
X33250000Y-30750000D03*
X33250000Y-26250000D03*
X26750000Y-30750000D03*
X26750000Y-26250000D03*
X30000000Y-102300000D03*
X30000000Y-107700000D03*
X26750000Y-102750000D03*
X26750000Y-107250000D03*
X33250000Y-102750000D03*
X33250000Y-107250000D03*
X30000000Y-132300000D03*
X30000000Y-137700000D03*
X26750000Y-132750000D03*
X26750000Y-137250000D03*
X33250000Y-132750000D03*
X33250000Y-137250000D03*
X75000000Y-137700000D03*
X75000000Y-132300000D03*
X78250000Y-137250000D03*
X78250000Y-132750000D03*
X71750000Y-137250000D03*
X71750000Y-132750000D03*
X176000000Y-137300000D03*
X176000000Y-142700000D03*
X172750000Y-137750000D03*
X172750000Y-142250000D03*
X179250000Y-137750000D03*
X179250000Y-142250000D03*
X176000000Y-121300000D03*
X176000000Y-126700000D03*
X172750000Y-121750000D03*
X172750000Y-126250000D03*
X179250000Y-121750000D03*
X179250000Y-126250000D03*
X191000000Y-82300000D03*
X191000000Y-87700000D03*
X187750000Y-82750000D03*
X187750000Y-87250000D03*
X194250000Y-82750000D03*
X194250000Y-87250000D03*
X111000000Y-72300000D03*
X111000000Y-77700000D03*
X107750000Y-72750000D03*
X107750000Y-77250000D03*
X114250000Y-72750000D03*
X114250000Y-77250000D03*
X76000000Y-72300000D03*
X76000000Y-77700000D03*
X72750000Y-72750000D03*
X72750000Y-77250000D03*
X79250000Y-72750000D03*
X79250000Y-77250000D03*
X63000000Y-72300000D03*
X63000000Y-77700000D03*
X59750000Y-72750000D03*
X59750000Y-77250000D03*
X66250000Y-72750000D03*
X66250000Y-77250000D03*
X50000000Y-72300000D03*
X50000000Y-77700000D03*
X46750000Y-72750000D03*
X46750000Y-77250000D03*
X53250000Y-72750000D03*
X53250000Y-77250000D03*
X63000000Y-52300000D03*
X63000000Y-57700000D03*
X59750000Y-52750000D03*
X59750000Y-57250000D03*
X66250000Y-52750000D03*
X66250000Y-57250000D03*
X76000000Y-32300000D03*
X76000000Y-37700000D03*
X72750000Y-32750000D03*
X72750000Y-37250000D03*
X79250000Y-32750000D03*
X79250000Y-37250000D03*
X63000000Y-32300000D03*
X63000000Y-37700000D03*
X59750000Y-32750000D03*
X59750000Y-37250000D03*
X66250000Y-32750000D03*
X66250000Y-37250000D03*
X50000000Y-32300000D03*
X50000000Y-37700000D03*
X46750000Y-32750000D03*
X46750000Y-37250000D03*
X53250000Y-32750000D03*
X53250000Y-37250000D03*
X191000000Y-102300000D03*
X191000000Y-107700000D03*
X187750000Y-102750000D03*
X187750000Y-107250000D03*
X194250000Y-102750000D03*
X194250000Y-107250000D03*
D24*
X186850900Y-38500000D03*
X185149100Y-38500000D03*
D25*
X80500000Y-54149100D03*
X80500000Y-55850900D03*
X82000000Y-117649100D03*
X82000000Y-119350900D03*
X17500000Y-117649100D03*
X17500000Y-119350900D03*
X187000000Y-112649100D03*
X187000000Y-114350900D03*
X50000000Y-88149100D03*
X50000000Y-89850900D03*
X49000000Y-117600900D03*
X49000000Y-115899100D03*
X46000000Y-54149100D03*
X46000000Y-55850900D03*
X25500000Y-34149100D03*
X25500000Y-35850900D03*
D24*
X99149100Y-140500000D03*
X100850900Y-140500000D03*
X188850900Y-7500000D03*
X187149100Y-7500000D03*
D25*
X33500000Y-95350900D03*
X33500000Y-93649100D03*
X30000000Y-97649100D03*
X30000000Y-99350900D03*
X76000000Y-29350900D03*
X76000000Y-27649100D03*
X63000000Y-49350900D03*
X63000000Y-47649100D03*
X50000000Y-29350900D03*
X50000000Y-27649100D03*
X63000000Y-29350900D03*
X63000000Y-27649100D03*
X50000000Y-69350900D03*
X50000000Y-67649100D03*
X63000000Y-69350900D03*
X63000000Y-67649100D03*
X76000000Y-69350900D03*
X76000000Y-67649100D03*
X111000000Y-69350900D03*
X111000000Y-67649100D03*
X186500000Y-96149100D03*
X186500000Y-97850900D03*
X191000000Y-91649100D03*
X191000000Y-93350900D03*
X75000000Y-126850900D03*
X75000000Y-125149100D03*
X71500000Y-126850900D03*
X71500000Y-125149100D03*
X73000000Y-117649100D03*
X73000000Y-119350900D03*
X85500000Y-126850900D03*
X85500000Y-125149100D03*
X33500000Y-97649100D03*
X33500000Y-99350900D03*
X187500000Y-77149100D03*
X187500000Y-78850900D03*
X82000000Y-126850900D03*
X82000000Y-125149100D03*
X79000000Y-126850900D03*
X79000000Y-125149100D03*
X27000000Y-88850900D03*
X27000000Y-87149100D03*
X107500000Y-67649100D03*
X107500000Y-69350900D03*
X191000000Y-78850900D03*
X191000000Y-77149100D03*
X176000000Y-118350900D03*
X176000000Y-116649100D03*
X26500000Y-75850900D03*
X26500000Y-74149100D03*
X132000000Y-132649100D03*
X132000000Y-134350900D03*
X176000000Y-134350900D03*
X176000000Y-132649100D03*
X33500000Y-48350900D03*
X33500000Y-46649100D03*
X154000000Y-132649100D03*
X154000000Y-134350900D03*
X43500000Y-95350900D03*
X43500000Y-93649100D03*
X46000000Y-51850900D03*
X46000000Y-50149100D03*
X43500000Y-100850900D03*
X43500000Y-99149100D03*
X27000000Y-128149100D03*
X27000000Y-129850900D03*
X172500000Y-132649100D03*
X172500000Y-134350900D03*
X43500000Y-105850900D03*
X43500000Y-104149100D03*
X43500000Y-110350900D03*
X43500000Y-108649100D03*
X52000000Y-142350900D03*
X52000000Y-140649100D03*
X172500000Y-116649100D03*
X172500000Y-118350900D03*
X68500000Y-95850900D03*
X68500000Y-94149100D03*
X68500000Y-100850900D03*
X68500000Y-99149100D03*
X72000000Y-142350900D03*
X72000000Y-140649100D03*
X68500000Y-105850900D03*
X68500000Y-104149100D03*
X49000000Y-110350900D03*
X49000000Y-108649100D03*
X68500000Y-110850900D03*
X68500000Y-109149100D03*
X33500000Y-57850900D03*
X33500000Y-56149100D03*
X79000000Y-27649100D03*
X79000000Y-29350900D03*
X38500000Y-57850900D03*
X38500000Y-56149100D03*
X43000000Y-125350900D03*
X43000000Y-123649100D03*
X59500000Y-27649100D03*
X59500000Y-29350900D03*
X43000000Y-130850900D03*
X43000000Y-129149100D03*
X43000000Y-135850900D03*
X43000000Y-134149100D03*
X46500000Y-27649100D03*
X46500000Y-29350900D03*
X43000000Y-140850900D03*
X43000000Y-139149100D03*
X63500000Y-126850900D03*
X63500000Y-125149100D03*
X42500000Y-23649100D03*
X42500000Y-25350900D03*
X59500000Y-126850900D03*
X59500000Y-125149100D03*
X46500000Y-67649100D03*
X46500000Y-69350900D03*
X17500000Y-23649100D03*
X17500000Y-25350900D03*
X21000000Y-23649100D03*
X21000000Y-25350900D03*
X59500000Y-67649100D03*
X59500000Y-69350900D03*
X24000000Y-23649100D03*
X24000000Y-25350900D03*
X36000000Y-23649100D03*
X36000000Y-25350900D03*
X72500000Y-67649100D03*
X72500000Y-69350900D03*
X39500000Y-23649100D03*
X39500000Y-25350900D03*
X19000000Y-57850900D03*
X19000000Y-56149100D03*
X60000000Y-47649100D03*
X60000000Y-49350900D03*
X23500000Y-57850900D03*
X23500000Y-56149100D03*
X28500000Y-57850900D03*
X28500000Y-56149100D03*
X30000000Y-129850900D03*
X30000000Y-128149100D03*
X193500000Y-112350900D03*
X193500000Y-110649100D03*
D26*
X195800000Y-140000000D03*
X186200000Y-140000000D03*
D27*
X193500000Y-147500000D03*
X191000000Y-147500000D03*
X188500000Y-147500000D03*
D26*
X180800000Y-105000000D03*
X171200000Y-105000000D03*
D27*
X178500000Y-112500000D03*
X176000000Y-112500000D03*
X173500000Y-112500000D03*
D26*
X165800000Y-105000000D03*
X156200000Y-105000000D03*
D27*
X163500000Y-112500000D03*
X161000000Y-112500000D03*
X158500000Y-112500000D03*
D26*
X150800000Y-105000000D03*
X141200000Y-105000000D03*
D27*
X148500000Y-112500000D03*
X146000000Y-112500000D03*
X143500000Y-112500000D03*
D26*
X135850000Y-105000000D03*
X126250000Y-105000000D03*
D27*
X133550000Y-112500000D03*
X131050000Y-112500000D03*
X128550000Y-112500000D03*
D26*
X115800000Y-105000000D03*
X106200000Y-105000000D03*
D27*
X113500000Y-112500000D03*
X111000000Y-112500000D03*
X108500000Y-112500000D03*
D26*
X95800000Y-105000000D03*
X86200000Y-105000000D03*
D27*
X93500000Y-112500000D03*
X91000000Y-112500000D03*
X88500000Y-112500000D03*
D26*
X14800000Y-135000000D03*
X5200000Y-135000000D03*
D27*
X12500000Y-142500000D03*
X10000000Y-142500000D03*
X7500000Y-142500000D03*
D26*
X14800000Y-105000000D03*
X5200000Y-105000000D03*
D27*
X12500000Y-112500000D03*
X10000000Y-112500000D03*
X7500000Y-112500000D03*
D26*
X180800000Y-85000000D03*
X171200000Y-85000000D03*
D27*
X178500000Y-92500000D03*
X176000000Y-92500000D03*
X173500000Y-92500000D03*
D26*
X165800000Y-85000000D03*
X156200000Y-85000000D03*
D27*
X163500000Y-92500000D03*
X161000000Y-92500000D03*
X158500000Y-92500000D03*
D26*
X150800000Y-85000000D03*
X141200000Y-85000000D03*
D27*
X148500000Y-92500000D03*
X146000000Y-92500000D03*
X143500000Y-92500000D03*
D26*
X135850000Y-85000000D03*
X126250000Y-85000000D03*
D27*
X133550000Y-92500000D03*
X131050000Y-92500000D03*
X128550000Y-92500000D03*
D26*
X190800000Y-57500000D03*
X181200000Y-57500000D03*
D27*
X188500000Y-65000000D03*
X186000000Y-65000000D03*
X183500000Y-65000000D03*
D26*
X190800000Y-27500000D03*
X181200000Y-27500000D03*
D27*
X188500000Y-35000000D03*
X186000000Y-35000000D03*
X183500000Y-35000000D03*
D26*
X165800000Y-65000000D03*
X156200000Y-65000000D03*
D27*
X163500000Y-72500000D03*
X161000000Y-72500000D03*
X158500000Y-72500000D03*
D26*
X165800000Y-50000000D03*
X156200000Y-50000000D03*
D27*
X163500000Y-57500000D03*
X161000000Y-57500000D03*
X158500000Y-57500000D03*
D26*
X165800000Y-35000000D03*
X156200000Y-35000000D03*
D27*
X163500000Y-42500000D03*
X161000000Y-42500000D03*
X158500000Y-42500000D03*
D26*
X165800000Y-20000000D03*
X156200000Y-20000000D03*
D27*
X163500000Y-27500000D03*
X161000000Y-27500000D03*
X158500000Y-27500000D03*
D26*
X140800000Y-50000000D03*
X131200000Y-50000000D03*
D27*
X138500000Y-57500000D03*
X136000000Y-57500000D03*
X133500000Y-57500000D03*
D26*
X140800000Y-35000000D03*
X131200000Y-35000000D03*
D27*
X138500000Y-42500000D03*
X136000000Y-42500000D03*
X133500000Y-42500000D03*
D26*
X140800000Y-20000000D03*
X131200000Y-20000000D03*
D27*
X138500000Y-27500000D03*
X136000000Y-27500000D03*
X133500000Y-27500000D03*
D26*
X95800000Y-75000000D03*
X86200000Y-75000000D03*
D27*
X93500000Y-82500000D03*
X91000000Y-82500000D03*
X88500000Y-82500000D03*
D26*
X14800000Y-75000000D03*
X5200000Y-75000000D03*
D27*
X12500000Y-82500000D03*
X10000000Y-82500000D03*
X7500000Y-82500000D03*
D26*
X115800000Y-50000000D03*
X106200000Y-50000000D03*
D27*
X113500000Y-57500000D03*
X111000000Y-57500000D03*
X108500000Y-57500000D03*
D26*
X115800000Y-35000000D03*
X106200000Y-35000000D03*
D27*
X113500000Y-42500000D03*
X111000000Y-42500000D03*
X108500000Y-42500000D03*
D26*
X115800000Y-20000000D03*
X106200000Y-20000000D03*
D27*
X113500000Y-27500000D03*
X111000000Y-27500000D03*
X108500000Y-27500000D03*
D26*
X95800000Y-50000000D03*
X86200000Y-50000000D03*
D27*
X93500000Y-57500000D03*
X91000000Y-57500000D03*
X88500000Y-57500000D03*
D26*
X95800000Y-35000000D03*
X86200000Y-35000000D03*
D27*
X93500000Y-42500000D03*
X91000000Y-42500000D03*
X88500000Y-42500000D03*
D26*
X95800000Y-20000000D03*
X86200000Y-20000000D03*
D27*
X93500000Y-27500000D03*
X91000000Y-27500000D03*
X88500000Y-27500000D03*
D26*
X14800000Y-35000000D03*
X5200000Y-35000000D03*
D27*
X12500000Y-42500000D03*
X10000000Y-42500000D03*
X7500000Y-42500000D03*
D28*
X18730000Y-20500000D03*
D29*
X21270000Y-20500000D03*
D28*
X23730000Y-20500000D03*
D29*
X26270000Y-20500000D03*
D28*
X28730000Y-20500000D03*
D29*
X31270000Y-20500000D03*
D28*
X33730000Y-20500000D03*
D29*
X36270000Y-20500000D03*
D28*
X38730000Y-20500000D03*
D29*
X41270000Y-20500000D03*
D28*
X18730000Y-60500000D03*
D29*
X21270000Y-60500000D03*
D28*
X23730000Y-60500000D03*
D29*
X26270000Y-60500000D03*
D28*
X28730000Y-60500000D03*
D29*
X31270000Y-60500000D03*
D28*
X33730000Y-60500000D03*
D29*
X36270000Y-60500000D03*
D28*
X38730000Y-60500000D03*
D29*
X41270000Y-60500000D03*
D28*
X41270000Y-97500000D03*
D29*
X38730000Y-97500000D03*
D28*
X41270000Y-102500000D03*
D29*
X38730000Y-102500000D03*
D28*
X41270000Y-107500000D03*
D29*
X38730000Y-107500000D03*
D28*
X41270000Y-112500000D03*
D29*
X38730000Y-112500000D03*
D28*
X66270000Y-97500000D03*
D29*
X63730000Y-97500000D03*
D28*
X66270000Y-102500000D03*
D29*
X63730000Y-102500000D03*
D28*
X66270000Y-107500000D03*
D29*
X63730000Y-107500000D03*
D28*
X66270000Y-112500000D03*
D29*
X63730000Y-112500000D03*
D28*
X41270000Y-127500000D03*
D29*
X38730000Y-127500000D03*
D28*
X41270000Y-132500000D03*
D29*
X38730000Y-132500000D03*
D28*
X41270000Y-137500000D03*
D29*
X38730000Y-137500000D03*
D28*
X41270000Y-142500000D03*
D29*
X38730000Y-142500000D03*
D28*
X63730000Y-130000000D03*
D29*
X66270000Y-130000000D03*
D28*
X63730000Y-135000000D03*
D29*
X66270000Y-135000000D03*
D28*
X63730000Y-140000000D03*
D29*
X66270000Y-140000000D03*
D28*
X83730000Y-130000000D03*
D29*
X86270000Y-130000000D03*
D28*
X83730000Y-135000000D03*
D29*
X86270000Y-135000000D03*
D28*
X83730000Y-140000000D03*
D29*
X86270000Y-140000000D03*
D28*
X189730000Y-97000000D03*
D29*
X192270000Y-97000000D03*
D30*
X37000000Y-11500000D03*
X44500000Y-11500000D03*
X29500000Y-11500000D03*
X32000000Y-14000000D03*
X42000000Y-14000000D03*
X32000000Y-1500000D03*
X42000000Y-1500000D03*
X59000000Y-11500000D03*
X66500000Y-11500000D03*
X51500000Y-11500000D03*
X54000000Y-14000000D03*
X64000000Y-14000000D03*
X54000000Y-1500000D03*
X64000000Y-1500000D03*
X15000000Y-11500000D03*
X22500000Y-11500000D03*
X7500000Y-11500000D03*
X10000000Y-14000000D03*
X20000000Y-14000000D03*
X10000000Y-1500000D03*
X20000000Y-1500000D03*
D29*
X139650000Y-128810000D03*
X142190000Y-128810000D03*
X144730000Y-128810000D03*
X147270000Y-128810000D03*
X149810000Y-128810000D03*
X152350000Y-128810000D03*
X152350000Y-121190000D03*
X149810000Y-121190000D03*
X147270000Y-121190000D03*
X144730000Y-121190000D03*
X142190000Y-121190000D03*
X139650000Y-121190000D03*
D31*
X189049020Y-10000000D03*
X186950980Y-10000000D03*
D20*
X79750000Y-144250000D03*
X76000000Y-22000000D03*
M02*
