M48
INCH,TZ
T1C0.020
T2C0.024
T3C0.025
T4C0.026
T5C0.030
T6C0.032
T7C0.039
T8C0.040
T9C0.040
T10C0.053
T11C0.055
T12C0.087
T13C0.125
%
G90
G05
T1
X007272Y-045598
X007445Y-015586
X007466Y-013573
X007732Y-048429
X007843Y-017126
X008071Y-047134
X008366Y-013465
X008609Y-011956
X008626Y-055000
X009087Y-055264
X009673Y-012669
X012476Y-050445
X013394Y-024693
X013748Y-043012
X014495Y-045386
X014964Y-043702
X016728Y-012087
X017201Y-024701
X018689Y-031949
X019091Y-033276
X019736Y-023602
X020219Y-023555
X020795Y-019846
X021268Y-044983
X021917Y-012886
X021976Y-047024
X022125Y-013501
X022626Y-018811
X023035Y-045299
X027157Y-045008
X027557Y-044110
X027637Y-046550
X027677Y-044630
X028039Y-012217
X028268Y-013831
X029531Y-018815
X030063Y-021559
X030134Y-046220
X030379Y-044956
X030744Y-044622
X030886Y-046550
X031398Y-044407
X034413Y-050638
X036091Y-051169
X036681Y-052358
X036693Y-053339
X037244Y-045591
X037476Y-025846
X038075Y-023567
X038887Y-050066
X040409Y-044729
X040430Y-045506
X040430Y-047007
X040450Y-046264
X040453Y-043898
X040552Y-037351
X040708Y-051783
X040734Y-045877
X040744Y-047441
X040744Y-046645
X040748Y-044291
X040766Y-045114
X041327Y-057098
X041413Y-035740
X041622Y-036402
X042844Y-046789
X043701Y-046457
X043713Y-026059
X043976Y-054236
X044130Y-046770
X044491Y-046454
X044539Y-053240
X044540Y-053840
X044740Y-052476
X044882Y-046752
X045276Y-046457
X045705Y-046770
X045747Y-048216
X045913Y-050933
X046046Y-054815
X046057Y-055474
X046066Y-046454
X046098Y-054155
X046175Y-048432
X046280Y-055900
X046372Y-053760
X046444Y-055094
X046457Y-046752
X046651Y-048147
X047047Y-048425
X047069Y-049114
X047131Y-053311
X047362Y-051831
X047412Y-049451
X047539Y-052461
X047539Y-053051
X047636Y-049897
X047646Y-051193
X047737Y-050367
X049165Y-054323
X049495Y-049496
X049508Y-048327
X049508Y-048917
X049508Y-050098
X049902Y-050689
X050260Y-057534
X050394Y-050689
X050453Y-045134
X050677Y-025745
X050886Y-050689
X051165Y-025732
X051378Y-050689
X052874Y-052008
X054535Y-025890
X054886Y-027346
X055031Y-025882
X055227Y-026696
X056323Y-052602
X063315Y-005268
X063319Y-005831
X063649Y-006425
X064693Y-057534
X065224Y-057534
X065972Y-047736
X068043Y-008701
X069272Y-045331
X071753Y-054406
T2
X070079Y-004921
X070079Y-005709
T3
X006268Y-046313
X009472Y-029866
X010448Y-036203
X010700Y-038684
X017248Y-020394
X017354Y-022004
X018091Y-046734
X018295Y-026083
X018850Y-046343
X020174Y-033761
X020174Y-045434
X021256Y-022760
X022291Y-046189
X022295Y-033262
X028488Y-035413
X029694Y-021142
X031079Y-034429
X032276Y-047705
X034996Y-036854
X040630Y-051012
X040984Y-052528
X041056Y-055429
X041921Y-052996
X042254Y-056348
X042266Y-058135
X042854Y-045319
X044110Y-055906
X044571Y-050110
X045395Y-048596
X045465Y-052429
X051736Y-025598
X053907Y-025810
X067280Y-010425
X068064Y-009264
X070169Y-008689
X071531Y-051909
X075524Y-043205
T4
X007374Y-008071
X007374Y-023819
X008374Y-008071
X008374Y-023819
X009343Y-008071
X009343Y-023819
X010343Y-008071
X010343Y-023819
X011311Y-008071
X011311Y-023819
X012311Y-008071
X012311Y-023819
X013280Y-008071
X013280Y-023819
X014280Y-008071
X014280Y-023819
X015248Y-008071
X015248Y-023819
X015248Y-038386
X015248Y-040354
X015248Y-042323
X015248Y-044291
X015248Y-050197
X015248Y-052165
X015248Y-054134
X015248Y-056102
X016248Y-008071
X016248Y-023819
X016248Y-038386
X016248Y-040354
X016248Y-042323
X016248Y-044291
X016248Y-050197
X016248Y-052165
X016248Y-054134
X016248Y-056102
X025091Y-038386
X025091Y-040354
X025091Y-042323
X025091Y-044291
X025091Y-051181
X025091Y-053150
X025091Y-055118
X026091Y-038386
X026091Y-040354
X026091Y-042323
X026091Y-044291
X026091Y-051181
X026091Y-053150
X026091Y-055118
X032965Y-051181
X032965Y-053150
X032965Y-055118
X033965Y-051181
X033965Y-053150
X033965Y-055118
X054980Y-047713
X054980Y-050713
X055980Y-047713
X055980Y-050713
X056980Y-047713
X056980Y-050713
X057980Y-047713
X057980Y-050713
X058980Y-047713
X058980Y-050713
X059980Y-047713
X059980Y-050713
X074697Y-038189
X075697Y-038189
T5
X072638Y-002937
X072638Y-003937
X072638Y-004937
T6
X067374Y-003846
T7
X002953Y-016732
X002953Y-032480
X002953Y-044291
X002953Y-056102
X003937Y-016732
X003937Y-032480
X003937Y-044291
X003937Y-056102
X004921Y-016732
X004921Y-032480
X004921Y-044291
X004921Y-056102
X010531Y-010335
X010531Y-012106
X010531Y-015453
X010531Y-017224
X010531Y-026083
X010531Y-027854
X010531Y-031201
X010531Y-032972
X010531Y-040453
X010531Y-042224
X010531Y-052264
X010531Y-054035
X011811Y-010157
X011811Y-012283
X011811Y-015276
X011811Y-017402
X011811Y-025906
X011811Y-028031
X011811Y-031024
X011811Y-033150
X011811Y-040276
X011811Y-042402
X011811Y-052087
X011811Y-054213
X013091Y-010335
X013091Y-012106
X013091Y-015453
X013091Y-017224
X013091Y-026083
X013091Y-027854
X013091Y-031201
X013091Y-032972
X013091Y-040453
X013091Y-042224
X013091Y-052264
X013091Y-054035
X018406Y-012894
X018406Y-014665
X018406Y-028642
X018406Y-030413
X019685Y-012717
X019685Y-014843
X019685Y-028465
X019685Y-030591
X020374Y-040453
X020374Y-042224
X020374Y-052264
X020374Y-054035
X020965Y-012894
X020965Y-014665
X020965Y-028642
X020965Y-030413
X021654Y-040276
X021654Y-042402
X021654Y-052087
X021654Y-054213
X022933Y-040453
X022933Y-042224
X022933Y-052264
X022933Y-054035
X023524Y-012894
X023524Y-014665
X023524Y-020768
X023524Y-022539
X023524Y-028642
X023524Y-030413
X024803Y-012717
X024803Y-014843
X024803Y-020591
X024803Y-022717
X024803Y-028465
X024803Y-030591
X026083Y-012894
X026083Y-014665
X026083Y-020768
X026083Y-022539
X026083Y-028642
X026083Y-030413
X028248Y-052264
X028248Y-054035
X028642Y-012894
X028642Y-014665
X028642Y-028642
X028642Y-030413
X029528Y-052087
X029528Y-054213
X029921Y-012717
X029921Y-014843
X029921Y-028465
X029921Y-030591
X030807Y-052264
X030807Y-054035
X031201Y-012894
X031201Y-014665
X031201Y-028642
X031201Y-030413
X034843Y-010827
X034843Y-016732
X034843Y-022638
X034843Y-032480
X034843Y-044291
X035827Y-010827
X035827Y-016732
X035827Y-022638
X035827Y-032480
X035827Y-044291
X036811Y-010827
X036811Y-016732
X036811Y-022638
X036811Y-032480
X036811Y-044291
X042421Y-028642
X042421Y-030413
X042717Y-010827
X042717Y-016732
X042717Y-022638
X042717Y-044291
X043701Y-010827
X043701Y-016732
X043701Y-022638
X043701Y-028465
X043701Y-030591
X043701Y-044291
X044685Y-010827
X044685Y-016732
X044685Y-022638
X044685Y-044291
X044980Y-028642
X044980Y-030413
X050610Y-036417
X050610Y-044291
X051594Y-036417
X051594Y-044291
X051870Y-054232
X051870Y-056004
X052559Y-010827
X052559Y-016732
X052559Y-022638
X052579Y-036417
X052579Y-044291
X053150Y-054055
X053150Y-056181
X053543Y-010827
X053543Y-016732
X053543Y-022638
X054429Y-054232
X054429Y-056004
X054528Y-010827
X054528Y-016732
X054528Y-022638
X056496Y-036417
X056496Y-044291
X057480Y-036417
X057480Y-044291
X058465Y-036417
X058465Y-044291
X060531Y-054232
X060531Y-056004
X061811Y-054055
X061811Y-056181
X062402Y-010827
X062402Y-016732
X062402Y-022638
X062402Y-028543
X062402Y-036417
X062402Y-044291
X063091Y-054232
X063091Y-056004
X063386Y-010827
X063386Y-016732
X063386Y-022638
X063386Y-028543
X063386Y-036417
X063386Y-044291
X064370Y-010827
X064370Y-016732
X064370Y-022638
X064370Y-028543
X064370Y-036417
X064370Y-044291
X068012Y-047933
X068012Y-049705
X068012Y-054232
X068012Y-056004
X068307Y-036417
X068307Y-044291
X069291Y-036417
X069291Y-044291
X069291Y-047756
X069291Y-049882
X069291Y-054055
X069291Y-056181
X070276Y-036417
X070276Y-044291
X070571Y-047933
X070571Y-049705
X070571Y-054232
X070571Y-056004
X072244Y-013780
X072244Y-025591
X073228Y-013780
X073228Y-025591
X073917Y-032579
X073917Y-034350
X073917Y-040453
X073917Y-042224
X074213Y-013780
X074213Y-025591
X074213Y-058071
X075197Y-032402
X075197Y-034528
X075197Y-040276
X075197Y-042402
X075197Y-058071
X076181Y-058071
X076476Y-032579
X076476Y-034350
X076476Y-040453
X076476Y-042224
T8
X048374Y-002846
X048374Y-003846
X049374Y-002846
X049374Y-003846
X050374Y-002846
X050374Y-003846
X051374Y-002846
X051374Y-003846
X052374Y-002846
X052374Y-003846
X053374Y-002846
X053374Y-003846
X054374Y-002846
X054374Y-003846
X055374Y-002846
X055374Y-003846
X056374Y-002846
X056374Y-003846
X057374Y-002846
X057374Y-003846
X058374Y-002846
X058374Y-003846
X059374Y-002846
X059374Y-003846
X060374Y-002846
X060374Y-003846
X061374Y-002846
X061374Y-003846
X062374Y-002846
X062374Y-003846
X063374Y-002846
X063374Y-003846
X064374Y-002846
X064374Y-003846
X065374Y-002846
X065374Y-003846
X066374Y-002846
X066374Y-003846
X067374Y-002846
T9
X036598Y-056390
X036598Y-057390
X037598Y-056390
X037598Y-057390
X038598Y-056390
X038598Y-057390
T10
X029921Y-008661
X030709Y-019094
X031398Y-056791
X034252Y-046654
X035827Y-046654
X036220Y-050197
X037992Y-046654
T11
X002953Y-004528
X003937Y-000591
X003937Y-005512
X005906Y-004528
X007874Y-000591
X007874Y-005512
X008858Y-004528
X011614Y-004528
X012598Y-000591
X012598Y-005512
X014567Y-004528
X016535Y-000591
X016535Y-005512
X017520Y-004528
X020276Y-004528
X021260Y-000591
X021260Y-005512
X023228Y-004528
X025197Y-000591
X025197Y-005512
X026181Y-004528
T12
X002047Y-013780
X002047Y-029528
X002047Y-041339
X002047Y-053150
X005827Y-013780
X005827Y-029528
X005827Y-041339
X005827Y-053150
X033937Y-007874
X033937Y-013780
X033937Y-019685
X033937Y-029528
X033937Y-041339
X037717Y-007874
X037717Y-013780
X037717Y-019685
X037717Y-029528
X037717Y-041339
X041811Y-007874
X041811Y-013780
X041811Y-019685
X041811Y-041339
X045591Y-007874
X045591Y-013780
X045591Y-019685
X045591Y-041339
X049705Y-033465
X049705Y-041339
X051654Y-007874
X051654Y-013780
X051654Y-019685
X053484Y-033465
X053484Y-041339
X055433Y-007874
X055433Y-013780
X055433Y-019685
X055591Y-033465
X055591Y-041339
X059370Y-033465
X059370Y-041339
X061496Y-007874
X061496Y-013780
X061496Y-019685
X061496Y-025591
X061496Y-033465
X061496Y-041339
X065276Y-007874
X065276Y-013780
X065276Y-019685
X065276Y-025591
X065276Y-033465
X065276Y-041339
X067402Y-033465
X067402Y-041339
X071181Y-033465
X071181Y-041339
X071339Y-010827
X071339Y-022638
X073307Y-055118
X075118Y-010827
X075118Y-022638
X077087Y-055118
T13
X003150Y-009449
X003346Y-048031
X076772Y-001969
X076772Y-051378
T0
M30
