%FSLAX46Y46*%
G04 Gerber Fmt 4.6, Leading zero omitted, Abs format (unit mm)*
G04 Created by KiCad (PCBNEW (2014-09-02 BZR 5112)-product) date 2015-02-16 11:39:03 AM*
%MOMM*%
G01*
G04 APERTURE LIST*
%ADD10C,0.500000*%
%ADD11R,1.270000X1.270000*%
%ADD12C,1.270000*%
%ADD13R,2.052000X1.544000*%
%ADD14R,0.629600X0.782000*%
%ADD15C,2.052000*%
%ADD16R,2.052000X2.052000*%
%ADD17R,1.544000X1.544000*%
%ADD18C,1.544000*%
%ADD19R,1.163000X1.417000*%
%ADD20R,1.520000X1.520000*%
%ADD21R,2.219640X0.619440*%
%ADD22R,0.426400X1.290000*%
%ADD23C,1.420000*%
%ADD24R,0.401000X1.290000*%
%ADD25R,1.020760X0.721040*%
%ADD26R,0.920000X1.420000*%
%ADD27C,2.520000*%
%ADD28C,3.322000*%
%ADD29C,2.020000*%
%ADD30R,0.832800X1.163000*%
%ADD31R,1.163000X0.832800*%
%ADD32O,2.820000X3.520000*%
%ADD33C,1.770000*%
%ADD34R,1.220000X1.220000*%
%ADD35C,1.220000*%
%ADD36C,2.560000*%
G04 APERTURE END LIST*
D10*
D11*
X178000000Y-14500000D03*
D12*
X178000000Y-12500000D03*
D13*
X178000000Y-5849000D03*
X178000000Y-9151000D03*
D14*
X54244600Y-19500000D03*
X51755400Y-19500000D03*
D10*
G36*
X110776120Y-140447229D02*
X110969867Y-140253482D01*
X111702430Y-140986045D01*
X111508683Y-141179792D01*
X110776120Y-140447229D01*
X110776120Y-140447229D01*
G37*
G36*
X119253482Y-131969867D02*
X119447229Y-131776120D01*
X120179792Y-132508683D01*
X119986045Y-132702430D01*
X119253482Y-131969867D01*
X119253482Y-131969867D01*
G37*
G36*
X118894272Y-132329078D02*
X119088019Y-132135331D01*
X119820582Y-132867894D01*
X119626835Y-133061641D01*
X118894272Y-132329078D01*
X118894272Y-132329078D01*
G37*
G36*
X118553022Y-132670327D02*
X118746769Y-132476580D01*
X119479332Y-133209143D01*
X119285585Y-133402890D01*
X118553022Y-132670327D01*
X118553022Y-132670327D01*
G37*
G36*
X118193812Y-133029538D02*
X118387559Y-132835791D01*
X119120122Y-133568354D01*
X118926375Y-133762101D01*
X118193812Y-133029538D01*
X118193812Y-133029538D01*
G37*
G36*
X117834602Y-133388748D02*
X118028349Y-133195001D01*
X118760912Y-133927564D01*
X118567165Y-134121311D01*
X117834602Y-133388748D01*
X117834602Y-133388748D01*
G37*
G36*
X117493352Y-133729998D02*
X117687099Y-133536251D01*
X118419662Y-134268814D01*
X118225915Y-134462561D01*
X117493352Y-133729998D01*
X117493352Y-133729998D01*
G37*
G36*
X117134142Y-134089208D02*
X117327889Y-133895461D01*
X118060452Y-134628024D01*
X117866705Y-134821771D01*
X117134142Y-134089208D01*
X117134142Y-134089208D01*
G37*
G36*
X116774931Y-134448418D02*
X116968678Y-134254671D01*
X117701241Y-134987234D01*
X117507494Y-135180981D01*
X116774931Y-134448418D01*
X116774931Y-134448418D01*
G37*
G36*
X116433682Y-134789668D02*
X116627429Y-134595921D01*
X117359992Y-135328484D01*
X117166245Y-135522231D01*
X116433682Y-134789668D01*
X116433682Y-134789668D01*
G37*
G36*
X116074471Y-135148878D02*
X116268218Y-134955131D01*
X117000781Y-135687694D01*
X116807034Y-135881441D01*
X116074471Y-135148878D01*
X116074471Y-135148878D01*
G37*
G36*
X115715261Y-135508088D02*
X115909008Y-135314341D01*
X116641571Y-136046904D01*
X116447824Y-136240651D01*
X115715261Y-135508088D01*
X115715261Y-135508088D01*
G37*
G36*
X115356051Y-135867299D02*
X115549798Y-135673552D01*
X116282361Y-136406115D01*
X116088614Y-136599862D01*
X115356051Y-135867299D01*
X115356051Y-135867299D01*
G37*
G36*
X115014801Y-136208548D02*
X115208548Y-136014801D01*
X115941111Y-136747364D01*
X115747364Y-136941111D01*
X115014801Y-136208548D01*
X115014801Y-136208548D01*
G37*
G36*
X114655591Y-136567758D02*
X114849338Y-136374011D01*
X115581901Y-137106574D01*
X115388154Y-137300321D01*
X114655591Y-136567758D01*
X114655591Y-136567758D01*
G37*
G36*
X114296381Y-136926969D02*
X114490128Y-136733222D01*
X115222691Y-137465785D01*
X115028944Y-137659532D01*
X114296381Y-136926969D01*
X114296381Y-136926969D01*
G37*
G36*
X113955131Y-137268218D02*
X114148878Y-137074471D01*
X114881441Y-137807034D01*
X114687694Y-138000781D01*
X113955131Y-137268218D01*
X113955131Y-137268218D01*
G37*
G36*
X113595921Y-137627429D02*
X113789668Y-137433682D01*
X114522231Y-138166245D01*
X114328484Y-138359992D01*
X113595921Y-137627429D01*
X113595921Y-137627429D01*
G37*
G36*
X113236711Y-137986639D02*
X113430458Y-137792892D01*
X114163021Y-138525455D01*
X113969274Y-138719202D01*
X113236711Y-137986639D01*
X113236711Y-137986639D01*
G37*
G36*
X112895461Y-138327889D02*
X113089208Y-138134142D01*
X113821771Y-138866705D01*
X113628024Y-139060452D01*
X112895461Y-138327889D01*
X112895461Y-138327889D01*
G37*
G36*
X112536251Y-138687099D02*
X112729998Y-138493352D01*
X113462561Y-139225915D01*
X113268814Y-139419662D01*
X112536251Y-138687099D01*
X112536251Y-138687099D01*
G37*
G36*
X112177040Y-139046309D02*
X112370787Y-138852562D01*
X113103350Y-139585125D01*
X112909603Y-139778872D01*
X112177040Y-139046309D01*
X112177040Y-139046309D01*
G37*
G36*
X111835791Y-139387559D02*
X112029538Y-139193812D01*
X112762101Y-139926375D01*
X112568354Y-140120122D01*
X111835791Y-139387559D01*
X111835791Y-139387559D01*
G37*
G36*
X111476580Y-139746769D02*
X111670327Y-139553022D01*
X112402890Y-140285585D01*
X112209143Y-140479332D01*
X111476580Y-139746769D01*
X111476580Y-139746769D01*
G37*
G36*
X111117370Y-140105979D02*
X111311117Y-139912232D01*
X112043680Y-140644795D01*
X111849933Y-140838542D01*
X111117370Y-140105979D01*
X111117370Y-140105979D01*
G37*
G36*
X119253482Y-130030133D02*
X119986045Y-129297570D01*
X120179792Y-129491317D01*
X119447229Y-130223880D01*
X119253482Y-130030133D01*
X119253482Y-130030133D01*
G37*
G36*
X110776120Y-121552771D02*
X111508683Y-120820208D01*
X111702430Y-121013955D01*
X110969867Y-121746518D01*
X110776120Y-121552771D01*
X110776120Y-121552771D01*
G37*
G36*
X111135331Y-121911981D02*
X111867894Y-121179418D01*
X112061641Y-121373165D01*
X111329078Y-122105728D01*
X111135331Y-121911981D01*
X111135331Y-121911981D01*
G37*
G36*
X111476580Y-122253231D02*
X112209143Y-121520668D01*
X112402890Y-121714415D01*
X111670327Y-122446978D01*
X111476580Y-122253231D01*
X111476580Y-122253231D01*
G37*
G36*
X111835791Y-122612441D02*
X112568354Y-121879878D01*
X112762101Y-122073625D01*
X112029538Y-122806188D01*
X111835791Y-122612441D01*
X111835791Y-122612441D01*
G37*
G36*
X112195001Y-122971651D02*
X112927564Y-122239088D01*
X113121311Y-122432835D01*
X112388748Y-123165398D01*
X112195001Y-122971651D01*
X112195001Y-122971651D01*
G37*
G36*
X112536251Y-123312901D02*
X113268814Y-122580338D01*
X113462561Y-122774085D01*
X112729998Y-123506648D01*
X112536251Y-123312901D01*
X112536251Y-123312901D01*
G37*
G36*
X112895461Y-123672111D02*
X113628024Y-122939548D01*
X113821771Y-123133295D01*
X113089208Y-123865858D01*
X112895461Y-123672111D01*
X112895461Y-123672111D01*
G37*
G36*
X113254671Y-124031322D02*
X113987234Y-123298759D01*
X114180981Y-123492506D01*
X113448418Y-124225069D01*
X113254671Y-124031322D01*
X113254671Y-124031322D01*
G37*
G36*
X113595921Y-124372571D02*
X114328484Y-123640008D01*
X114522231Y-123833755D01*
X113789668Y-124566318D01*
X113595921Y-124372571D01*
X113595921Y-124372571D01*
G37*
G36*
X113955131Y-124731782D02*
X114687694Y-123999219D01*
X114881441Y-124192966D01*
X114148878Y-124925529D01*
X113955131Y-124731782D01*
X113955131Y-124731782D01*
G37*
G36*
X114314341Y-125090992D02*
X115046904Y-124358429D01*
X115240651Y-124552176D01*
X114508088Y-125284739D01*
X114314341Y-125090992D01*
X114314341Y-125090992D01*
G37*
G36*
X114673552Y-125450202D02*
X115406115Y-124717639D01*
X115599862Y-124911386D01*
X114867299Y-125643949D01*
X114673552Y-125450202D01*
X114673552Y-125450202D01*
G37*
G36*
X115014801Y-125791452D02*
X115747364Y-125058889D01*
X115941111Y-125252636D01*
X115208548Y-125985199D01*
X115014801Y-125791452D01*
X115014801Y-125791452D01*
G37*
G36*
X115374011Y-126150662D02*
X116106574Y-125418099D01*
X116300321Y-125611846D01*
X115567758Y-126344409D01*
X115374011Y-126150662D01*
X115374011Y-126150662D01*
G37*
G36*
X115733222Y-126509872D02*
X116465785Y-125777309D01*
X116659532Y-125971056D01*
X115926969Y-126703619D01*
X115733222Y-126509872D01*
X115733222Y-126509872D01*
G37*
G36*
X116074471Y-126851122D02*
X116807034Y-126118559D01*
X117000781Y-126312306D01*
X116268218Y-127044869D01*
X116074471Y-126851122D01*
X116074471Y-126851122D01*
G37*
G36*
X116433682Y-127210332D02*
X117166245Y-126477769D01*
X117359992Y-126671516D01*
X116627429Y-127404079D01*
X116433682Y-127210332D01*
X116433682Y-127210332D01*
G37*
G36*
X116792892Y-127569542D02*
X117525455Y-126836979D01*
X117719202Y-127030726D01*
X116986639Y-127763289D01*
X116792892Y-127569542D01*
X116792892Y-127569542D01*
G37*
G36*
X117134142Y-127910792D02*
X117866705Y-127178229D01*
X118060452Y-127371976D01*
X117327889Y-128104539D01*
X117134142Y-127910792D01*
X117134142Y-127910792D01*
G37*
G36*
X117493352Y-128270002D02*
X118225915Y-127537439D01*
X118419662Y-127731186D01*
X117687099Y-128463749D01*
X117493352Y-128270002D01*
X117493352Y-128270002D01*
G37*
G36*
X117852562Y-128629213D02*
X118585125Y-127896650D01*
X118778872Y-128090397D01*
X118046309Y-128822960D01*
X117852562Y-128629213D01*
X117852562Y-128629213D01*
G37*
G36*
X118193812Y-128970462D02*
X118926375Y-128237899D01*
X119120122Y-128431646D01*
X118387559Y-129164209D01*
X118193812Y-128970462D01*
X118193812Y-128970462D01*
G37*
G36*
X118553022Y-129329673D02*
X119285585Y-128597110D01*
X119479332Y-128790857D01*
X118746769Y-129523420D01*
X118553022Y-129329673D01*
X118553022Y-129329673D01*
G37*
G36*
X118912232Y-129688883D02*
X119644795Y-128956320D01*
X119838542Y-129150067D01*
X119105979Y-129882630D01*
X118912232Y-129688883D01*
X118912232Y-129688883D01*
G37*
G36*
X108297570Y-140986045D02*
X109030133Y-140253482D01*
X109223880Y-140447229D01*
X108491317Y-141179792D01*
X108297570Y-140986045D01*
X108297570Y-140986045D01*
G37*
G36*
X107938359Y-140626835D02*
X108670922Y-139894272D01*
X108864669Y-140088019D01*
X108132106Y-140820582D01*
X107938359Y-140626835D01*
X107938359Y-140626835D01*
G37*
G36*
X107597110Y-140285585D02*
X108329673Y-139553022D01*
X108523420Y-139746769D01*
X107790857Y-140479332D01*
X107597110Y-140285585D01*
X107597110Y-140285585D01*
G37*
G36*
X107237899Y-139926375D02*
X107970462Y-139193812D01*
X108164209Y-139387559D01*
X107431646Y-140120122D01*
X107237899Y-139926375D01*
X107237899Y-139926375D01*
G37*
G36*
X106878689Y-139567165D02*
X107611252Y-138834602D01*
X107804999Y-139028349D01*
X107072436Y-139760912D01*
X106878689Y-139567165D01*
X106878689Y-139567165D01*
G37*
G36*
X106537439Y-139225915D02*
X107270002Y-138493352D01*
X107463749Y-138687099D01*
X106731186Y-139419662D01*
X106537439Y-139225915D01*
X106537439Y-139225915D01*
G37*
G36*
X106178229Y-138866705D02*
X106910792Y-138134142D01*
X107104539Y-138327889D01*
X106371976Y-139060452D01*
X106178229Y-138866705D01*
X106178229Y-138866705D01*
G37*
G36*
X105819019Y-138507494D02*
X106551582Y-137774931D01*
X106745329Y-137968678D01*
X106012766Y-138701241D01*
X105819019Y-138507494D01*
X105819019Y-138507494D01*
G37*
G36*
X105477769Y-138166245D02*
X106210332Y-137433682D01*
X106404079Y-137627429D01*
X105671516Y-138359992D01*
X105477769Y-138166245D01*
X105477769Y-138166245D01*
G37*
G36*
X105118559Y-137807034D02*
X105851122Y-137074471D01*
X106044869Y-137268218D01*
X105312306Y-138000781D01*
X105118559Y-137807034D01*
X105118559Y-137807034D01*
G37*
G36*
X104759349Y-137447824D02*
X105491912Y-136715261D01*
X105685659Y-136909008D01*
X104953096Y-137641571D01*
X104759349Y-137447824D01*
X104759349Y-137447824D01*
G37*
G36*
X104400138Y-137088614D02*
X105132701Y-136356051D01*
X105326448Y-136549798D01*
X104593885Y-137282361D01*
X104400138Y-137088614D01*
X104400138Y-137088614D01*
G37*
G36*
X104058889Y-136747364D02*
X104791452Y-136014801D01*
X104985199Y-136208548D01*
X104252636Y-136941111D01*
X104058889Y-136747364D01*
X104058889Y-136747364D01*
G37*
G36*
X103699679Y-136388154D02*
X104432242Y-135655591D01*
X104625989Y-135849338D01*
X103893426Y-136581901D01*
X103699679Y-136388154D01*
X103699679Y-136388154D01*
G37*
G36*
X103340468Y-136028944D02*
X104073031Y-135296381D01*
X104266778Y-135490128D01*
X103534215Y-136222691D01*
X103340468Y-136028944D01*
X103340468Y-136028944D01*
G37*
G36*
X102999219Y-135687694D02*
X103731782Y-134955131D01*
X103925529Y-135148878D01*
X103192966Y-135881441D01*
X102999219Y-135687694D01*
X102999219Y-135687694D01*
G37*
G36*
X102640008Y-135328484D02*
X103372571Y-134595921D01*
X103566318Y-134789668D01*
X102833755Y-135522231D01*
X102640008Y-135328484D01*
X102640008Y-135328484D01*
G37*
G36*
X102280798Y-134969274D02*
X103013361Y-134236711D01*
X103207108Y-134430458D01*
X102474545Y-135163021D01*
X102280798Y-134969274D01*
X102280798Y-134969274D01*
G37*
G36*
X101939548Y-134628024D02*
X102672111Y-133895461D01*
X102865858Y-134089208D01*
X102133295Y-134821771D01*
X101939548Y-134628024D01*
X101939548Y-134628024D01*
G37*
G36*
X101580338Y-134268814D02*
X102312901Y-133536251D01*
X102506648Y-133729998D01*
X101774085Y-134462561D01*
X101580338Y-134268814D01*
X101580338Y-134268814D01*
G37*
G36*
X101221128Y-133909603D02*
X101953691Y-133177040D01*
X102147438Y-133370787D01*
X101414875Y-134103350D01*
X101221128Y-133909603D01*
X101221128Y-133909603D01*
G37*
G36*
X100879878Y-133568354D02*
X101612441Y-132835791D01*
X101806188Y-133029538D01*
X101073625Y-133762101D01*
X100879878Y-133568354D01*
X100879878Y-133568354D01*
G37*
G36*
X100520668Y-133209143D02*
X101253231Y-132476580D01*
X101446978Y-132670327D01*
X100714415Y-133402890D01*
X100520668Y-133209143D01*
X100520668Y-133209143D01*
G37*
G36*
X100161458Y-132849933D02*
X100894021Y-132117370D01*
X101087768Y-132311117D01*
X100355205Y-133043680D01*
X100161458Y-132849933D01*
X100161458Y-132849933D01*
G37*
G36*
X99820208Y-132508683D02*
X100552771Y-131776120D01*
X100746518Y-131969867D01*
X100013955Y-132702430D01*
X99820208Y-132508683D01*
X99820208Y-132508683D01*
G37*
G36*
X99820208Y-129491317D02*
X100013955Y-129297570D01*
X100746518Y-130030133D01*
X100552771Y-130223880D01*
X99820208Y-129491317D01*
X99820208Y-129491317D01*
G37*
G36*
X100179418Y-129132106D02*
X100373165Y-128938359D01*
X101105728Y-129670922D01*
X100911981Y-129864669D01*
X100179418Y-129132106D01*
X100179418Y-129132106D01*
G37*
G36*
X100520668Y-128790857D02*
X100714415Y-128597110D01*
X101446978Y-129329673D01*
X101253231Y-129523420D01*
X100520668Y-128790857D01*
X100520668Y-128790857D01*
G37*
G36*
X100879878Y-128431646D02*
X101073625Y-128237899D01*
X101806188Y-128970462D01*
X101612441Y-129164209D01*
X100879878Y-128431646D01*
X100879878Y-128431646D01*
G37*
G36*
X101239088Y-128072436D02*
X101432835Y-127878689D01*
X102165398Y-128611252D01*
X101971651Y-128804999D01*
X101239088Y-128072436D01*
X101239088Y-128072436D01*
G37*
G36*
X101580338Y-127731186D02*
X101774085Y-127537439D01*
X102506648Y-128270002D01*
X102312901Y-128463749D01*
X101580338Y-127731186D01*
X101580338Y-127731186D01*
G37*
G36*
X101939548Y-127371976D02*
X102133295Y-127178229D01*
X102865858Y-127910792D01*
X102672111Y-128104539D01*
X101939548Y-127371976D01*
X101939548Y-127371976D01*
G37*
G36*
X102298759Y-127012766D02*
X102492506Y-126819019D01*
X103225069Y-127551582D01*
X103031322Y-127745329D01*
X102298759Y-127012766D01*
X102298759Y-127012766D01*
G37*
G36*
X102640008Y-126671516D02*
X102833755Y-126477769D01*
X103566318Y-127210332D01*
X103372571Y-127404079D01*
X102640008Y-126671516D01*
X102640008Y-126671516D01*
G37*
G36*
X102999219Y-126312306D02*
X103192966Y-126118559D01*
X103925529Y-126851122D01*
X103731782Y-127044869D01*
X102999219Y-126312306D01*
X102999219Y-126312306D01*
G37*
G36*
X103358429Y-125953096D02*
X103552176Y-125759349D01*
X104284739Y-126491912D01*
X104090992Y-126685659D01*
X103358429Y-125953096D01*
X103358429Y-125953096D01*
G37*
G36*
X103717639Y-125593885D02*
X103911386Y-125400138D01*
X104643949Y-126132701D01*
X104450202Y-126326448D01*
X103717639Y-125593885D01*
X103717639Y-125593885D01*
G37*
G36*
X104058889Y-125252636D02*
X104252636Y-125058889D01*
X104985199Y-125791452D01*
X104791452Y-125985199D01*
X104058889Y-125252636D01*
X104058889Y-125252636D01*
G37*
G36*
X104418099Y-124893426D02*
X104611846Y-124699679D01*
X105344409Y-125432242D01*
X105150662Y-125625989D01*
X104418099Y-124893426D01*
X104418099Y-124893426D01*
G37*
G36*
X104777309Y-124534215D02*
X104971056Y-124340468D01*
X105703619Y-125073031D01*
X105509872Y-125266778D01*
X104777309Y-124534215D01*
X104777309Y-124534215D01*
G37*
G36*
X105118559Y-124192966D02*
X105312306Y-123999219D01*
X106044869Y-124731782D01*
X105851122Y-124925529D01*
X105118559Y-124192966D01*
X105118559Y-124192966D01*
G37*
G36*
X105477769Y-123833755D02*
X105671516Y-123640008D01*
X106404079Y-124372571D01*
X106210332Y-124566318D01*
X105477769Y-123833755D01*
X105477769Y-123833755D01*
G37*
G36*
X105836979Y-123474545D02*
X106030726Y-123280798D01*
X106763289Y-124013361D01*
X106569542Y-124207108D01*
X105836979Y-123474545D01*
X105836979Y-123474545D01*
G37*
G36*
X106178229Y-123133295D02*
X106371976Y-122939548D01*
X107104539Y-123672111D01*
X106910792Y-123865858D01*
X106178229Y-123133295D01*
X106178229Y-123133295D01*
G37*
G36*
X106537439Y-122774085D02*
X106731186Y-122580338D01*
X107463749Y-123312901D01*
X107270002Y-123506648D01*
X106537439Y-122774085D01*
X106537439Y-122774085D01*
G37*
G36*
X106896650Y-122414875D02*
X107090397Y-122221128D01*
X107822960Y-122953691D01*
X107629213Y-123147438D01*
X106896650Y-122414875D01*
X106896650Y-122414875D01*
G37*
G36*
X107237899Y-122073625D02*
X107431646Y-121879878D01*
X108164209Y-122612441D01*
X107970462Y-122806188D01*
X107237899Y-122073625D01*
X107237899Y-122073625D01*
G37*
G36*
X107597110Y-121714415D02*
X107790857Y-121520668D01*
X108523420Y-122253231D01*
X108329673Y-122446978D01*
X107597110Y-121714415D01*
X107597110Y-121714415D01*
G37*
G36*
X107956320Y-121355205D02*
X108150067Y-121161458D01*
X108882630Y-121894021D01*
X108688883Y-122087768D01*
X107956320Y-121355205D01*
X107956320Y-121355205D01*
G37*
G36*
X108297570Y-121013955D02*
X108491317Y-120820208D01*
X109223880Y-121552771D01*
X109030133Y-121746518D01*
X108297570Y-121013955D01*
X108297570Y-121013955D01*
G37*
D15*
X92960000Y-145770000D03*
X95500000Y-145770000D03*
D16*
X98040000Y-145770000D03*
D15*
X92960000Y-143230000D03*
X95500000Y-143230000D03*
X98040000Y-143230000D03*
D17*
X171130000Y-9770000D03*
D18*
X171130000Y-7230000D03*
X158430000Y-9770000D03*
X168590000Y-7230000D03*
X155890000Y-9770000D03*
X166050000Y-7230000D03*
X153350000Y-9770000D03*
X163510000Y-7230000D03*
X150810000Y-9770000D03*
X160970000Y-7230000D03*
X148270000Y-9770000D03*
X158430000Y-7230000D03*
X145730000Y-9770000D03*
X155890000Y-7230000D03*
X143190000Y-9770000D03*
X153350000Y-7230000D03*
X140650000Y-9770000D03*
X150810000Y-7230000D03*
X138110000Y-9770000D03*
X148270000Y-7230000D03*
X135570000Y-9770000D03*
X145730000Y-7230000D03*
X133030000Y-9770000D03*
X143190000Y-7230000D03*
X140650000Y-7230000D03*
X130490000Y-9770000D03*
X138110000Y-7230000D03*
X133030000Y-7230000D03*
X130490000Y-7230000D03*
X127950000Y-7230000D03*
X125410000Y-7230000D03*
X127950000Y-9770000D03*
X125410000Y-9770000D03*
X168590000Y-9770000D03*
X166050000Y-9770000D03*
X163510000Y-9770000D03*
X160970000Y-9770000D03*
X122870000Y-9770000D03*
X122870000Y-7230000D03*
X135570000Y-7230000D03*
D19*
X108920500Y-143500000D03*
X111079500Y-143500000D03*
D20*
X71428000Y-10270000D03*
X71428000Y-7730000D03*
X71428000Y-5190000D03*
X71428000Y-12810000D03*
X80572000Y-12810000D03*
X80572000Y-10270000D03*
X80572000Y-7730000D03*
X80572000Y-5190000D03*
D21*
X176098420Y-19595000D03*
X176098420Y-20865000D03*
X176098420Y-22135000D03*
X176098420Y-23405000D03*
X170901580Y-23405000D03*
X170901580Y-22135000D03*
X170901580Y-20865000D03*
X170901580Y-19595000D03*
D22*
X72409000Y-85444000D03*
X73044000Y-85444000D03*
X73704400Y-85444000D03*
X74364800Y-85444000D03*
X74999800Y-85444000D03*
X75660200Y-85444000D03*
X76320600Y-85444000D03*
X76955600Y-85444000D03*
X77616000Y-85444000D03*
X78251000Y-85444000D03*
X78911400Y-85444000D03*
X79571800Y-85444000D03*
X79597200Y-92556000D03*
X78911400Y-92556000D03*
X78251000Y-92556000D03*
X77616000Y-92556000D03*
X76955600Y-92556000D03*
X76320600Y-92556000D03*
X75660200Y-92556000D03*
X74999800Y-92556000D03*
X74364800Y-92556000D03*
X73704400Y-92556000D03*
X73044000Y-92556000D03*
X72409000Y-92556000D03*
D23*
X184500000Y-10000000D03*
X184500000Y-12540000D03*
X184500000Y-7460000D03*
D22*
X132909000Y-63944000D03*
X133544000Y-63944000D03*
X134204400Y-63944000D03*
X134864800Y-63944000D03*
X135499800Y-63944000D03*
X136160200Y-63944000D03*
X136820600Y-63944000D03*
X137455600Y-63944000D03*
X138116000Y-63944000D03*
X138751000Y-63944000D03*
X139411400Y-63944000D03*
X140071800Y-63944000D03*
X140097200Y-71056000D03*
X139411400Y-71056000D03*
X138751000Y-71056000D03*
X138116000Y-71056000D03*
X137455600Y-71056000D03*
X136820600Y-71056000D03*
X136160200Y-71056000D03*
X135499800Y-71056000D03*
X134864800Y-71056000D03*
X134204400Y-71056000D03*
X133544000Y-71056000D03*
X132909000Y-71056000D03*
D24*
X148925000Y-140800000D03*
X148275600Y-140799080D03*
X147625360Y-140799080D03*
X146975120Y-140799080D03*
X146324880Y-140799080D03*
X145674640Y-140799080D03*
X145024400Y-140799080D03*
X144374160Y-140799080D03*
X143725000Y-140800000D03*
X143075000Y-140800000D03*
X143075000Y-135200000D03*
X143724880Y-135200920D03*
X144375120Y-135200920D03*
X145025360Y-135200920D03*
X145675600Y-135200920D03*
X146325840Y-135200920D03*
X146975000Y-135200000D03*
X147625000Y-135200000D03*
X148275000Y-135200000D03*
X148925000Y-135200000D03*
X133925000Y-121800000D03*
X133275600Y-121799080D03*
X132625360Y-121799080D03*
X131975120Y-121799080D03*
X131324880Y-121799080D03*
X130674640Y-121799080D03*
X130024400Y-121799080D03*
X129374160Y-121799080D03*
X128725000Y-121800000D03*
X128075000Y-121800000D03*
X128075000Y-116200000D03*
X128724880Y-116200920D03*
X129375120Y-116200920D03*
X130025360Y-116200920D03*
X130675600Y-116200920D03*
X131325840Y-116200920D03*
X131975000Y-116200000D03*
X132625000Y-116200000D03*
X133275000Y-116200000D03*
X133925000Y-116200000D03*
D25*
X86270000Y-8952500D03*
X86270000Y-8000000D03*
X86270000Y-7047500D03*
X83730000Y-7047500D03*
X83730000Y-8000000D03*
X83730000Y-8952500D03*
D26*
X100275000Y-124525000D03*
X100275000Y-121975000D03*
X98725000Y-121975000D03*
X98725000Y-124525000D03*
D27*
X87000000Y-118500000D03*
X78000000Y-48500000D03*
X96500000Y-118500000D03*
X91000000Y-118500000D03*
X92000000Y-127500000D03*
D28*
X8000000Y-24000000D03*
X8500000Y-122000000D03*
X195000000Y-130500000D03*
X195000000Y-5000000D03*
D29*
X157000000Y-137300000D03*
X157000000Y-142700000D03*
X153750000Y-137750000D03*
X153750000Y-142250000D03*
X160250000Y-137750000D03*
X160250000Y-142250000D03*
X135000000Y-137300000D03*
X135000000Y-142700000D03*
X131750000Y-137750000D03*
X131750000Y-142250000D03*
X138250000Y-137750000D03*
X138250000Y-142250000D03*
X55000000Y-137700000D03*
X55000000Y-132300000D03*
X58250000Y-137250000D03*
X58250000Y-132750000D03*
X51750000Y-137250000D03*
X51750000Y-132750000D03*
X55000000Y-107700000D03*
X55000000Y-102300000D03*
X58250000Y-107250000D03*
X58250000Y-102750000D03*
X51750000Y-107250000D03*
X51750000Y-102750000D03*
X30000000Y-84200000D03*
X30000000Y-78800000D03*
X33250000Y-83750000D03*
X33250000Y-79250000D03*
X26750000Y-83750000D03*
X26750000Y-79250000D03*
X30000000Y-71200000D03*
X30000000Y-65800000D03*
X33250000Y-70750000D03*
X33250000Y-66250000D03*
X26750000Y-70750000D03*
X26750000Y-66250000D03*
X30000000Y-44200000D03*
X30000000Y-38800000D03*
X33250000Y-43750000D03*
X33250000Y-39250000D03*
X26750000Y-43750000D03*
X26750000Y-39250000D03*
X30000000Y-31200000D03*
X30000000Y-25800000D03*
X33250000Y-30750000D03*
X33250000Y-26250000D03*
X26750000Y-30750000D03*
X26750000Y-26250000D03*
X30000000Y-102300000D03*
X30000000Y-107700000D03*
X26750000Y-102750000D03*
X26750000Y-107250000D03*
X33250000Y-102750000D03*
X33250000Y-107250000D03*
X30000000Y-132300000D03*
X30000000Y-137700000D03*
X26750000Y-132750000D03*
X26750000Y-137250000D03*
X33250000Y-132750000D03*
X33250000Y-137250000D03*
X75000000Y-137700000D03*
X75000000Y-132300000D03*
X78250000Y-137250000D03*
X78250000Y-132750000D03*
X71750000Y-137250000D03*
X71750000Y-132750000D03*
X176000000Y-137300000D03*
X176000000Y-142700000D03*
X172750000Y-137750000D03*
X172750000Y-142250000D03*
X179250000Y-137750000D03*
X179250000Y-142250000D03*
X176000000Y-121300000D03*
X176000000Y-126700000D03*
X172750000Y-121750000D03*
X172750000Y-126250000D03*
X179250000Y-121750000D03*
X179250000Y-126250000D03*
X191000000Y-82300000D03*
X191000000Y-87700000D03*
X187750000Y-82750000D03*
X187750000Y-87250000D03*
X194250000Y-82750000D03*
X194250000Y-87250000D03*
X111000000Y-72300000D03*
X111000000Y-77700000D03*
X107750000Y-72750000D03*
X107750000Y-77250000D03*
X114250000Y-72750000D03*
X114250000Y-77250000D03*
X76000000Y-72300000D03*
X76000000Y-77700000D03*
X72750000Y-72750000D03*
X72750000Y-77250000D03*
X79250000Y-72750000D03*
X79250000Y-77250000D03*
X63000000Y-72300000D03*
X63000000Y-77700000D03*
X59750000Y-72750000D03*
X59750000Y-77250000D03*
X66250000Y-72750000D03*
X66250000Y-77250000D03*
X50000000Y-72300000D03*
X50000000Y-77700000D03*
X46750000Y-72750000D03*
X46750000Y-77250000D03*
X53250000Y-72750000D03*
X53250000Y-77250000D03*
X63000000Y-52300000D03*
X63000000Y-57700000D03*
X59750000Y-52750000D03*
X59750000Y-57250000D03*
X66250000Y-52750000D03*
X66250000Y-57250000D03*
X76000000Y-32300000D03*
X76000000Y-37700000D03*
X72750000Y-32750000D03*
X72750000Y-37250000D03*
X79250000Y-32750000D03*
X79250000Y-37250000D03*
X63000000Y-32300000D03*
X63000000Y-37700000D03*
X59750000Y-32750000D03*
X59750000Y-37250000D03*
X66250000Y-32750000D03*
X66250000Y-37250000D03*
X50000000Y-32300000D03*
X50000000Y-37700000D03*
X46750000Y-32750000D03*
X46750000Y-37250000D03*
X53250000Y-32750000D03*
X53250000Y-37250000D03*
X191000000Y-102300000D03*
X191000000Y-107700000D03*
X187750000Y-102750000D03*
X187750000Y-107250000D03*
X194250000Y-102750000D03*
X194250000Y-107250000D03*
D30*
X114850900Y-143500000D03*
X113149100Y-143500000D03*
X95149100Y-124500000D03*
X96850900Y-124500000D03*
X95149100Y-122000000D03*
X96850900Y-122000000D03*
D31*
X70000000Y-89850900D03*
X70000000Y-88149100D03*
D30*
X113149100Y-145500000D03*
X114850900Y-145500000D03*
D31*
X15000000Y-42649100D03*
X15000000Y-44350900D03*
X131000000Y-71149100D03*
X131000000Y-72850900D03*
X136000000Y-114350900D03*
X136000000Y-112649100D03*
D30*
X150649100Y-135000000D03*
X152350900Y-135000000D03*
X84149100Y-13500000D03*
X85850900Y-13500000D03*
X93649100Y-54500000D03*
X95350900Y-54500000D03*
X138649100Y-54500000D03*
X140350900Y-54500000D03*
X113649100Y-54500000D03*
X115350900Y-54500000D03*
D31*
X15000000Y-82649100D03*
X15000000Y-84350900D03*
X47500000Y-134649100D03*
X47500000Y-136350900D03*
D30*
X91149100Y-122000000D03*
X92850900Y-122000000D03*
X118350900Y-143500000D03*
X116649100Y-143500000D03*
X121850900Y-143500000D03*
X120149100Y-143500000D03*
X52149100Y-21500000D03*
X53850900Y-21500000D03*
X14149100Y-20500000D03*
X15850900Y-20500000D03*
D31*
X142250000Y-119100900D03*
X142250000Y-117399100D03*
X152250000Y-119350900D03*
X152250000Y-117649100D03*
X147250000Y-127100900D03*
X147250000Y-125399100D03*
X142250000Y-127100900D03*
X142250000Y-125399100D03*
D30*
X84149100Y-4500000D03*
X85850900Y-4500000D03*
D31*
X139750000Y-127100900D03*
X139750000Y-125399100D03*
X144750000Y-119100900D03*
X144750000Y-117399100D03*
X150000000Y-127100900D03*
X150000000Y-125399100D03*
X144750000Y-127100900D03*
X144750000Y-125399100D03*
D30*
X84149100Y-11000000D03*
X85850900Y-11000000D03*
X48350900Y-21500000D03*
X46649100Y-21500000D03*
X90149100Y-138000000D03*
X91850900Y-138000000D03*
X90149100Y-135500000D03*
X91850900Y-135500000D03*
X90149100Y-133000000D03*
X91850900Y-133000000D03*
D32*
X195800000Y-140000000D03*
X186200000Y-140000000D03*
D33*
X193500000Y-147500000D03*
X191000000Y-147500000D03*
X188500000Y-147500000D03*
D32*
X180800000Y-105000000D03*
X171200000Y-105000000D03*
D33*
X178500000Y-112500000D03*
X176000000Y-112500000D03*
X173500000Y-112500000D03*
D32*
X165800000Y-105000000D03*
X156200000Y-105000000D03*
D33*
X163500000Y-112500000D03*
X161000000Y-112500000D03*
X158500000Y-112500000D03*
D32*
X150800000Y-105000000D03*
X141200000Y-105000000D03*
D33*
X148500000Y-112500000D03*
X146000000Y-112500000D03*
X143500000Y-112500000D03*
D32*
X135850000Y-105000000D03*
X126250000Y-105000000D03*
D33*
X133550000Y-112500000D03*
X131050000Y-112500000D03*
X128550000Y-112500000D03*
D32*
X115800000Y-105000000D03*
X106200000Y-105000000D03*
D33*
X113500000Y-112500000D03*
X111000000Y-112500000D03*
X108500000Y-112500000D03*
D32*
X95800000Y-105000000D03*
X86200000Y-105000000D03*
D33*
X93500000Y-112500000D03*
X91000000Y-112500000D03*
X88500000Y-112500000D03*
D32*
X14800000Y-135000000D03*
X5200000Y-135000000D03*
D33*
X12500000Y-142500000D03*
X10000000Y-142500000D03*
X7500000Y-142500000D03*
D32*
X14800000Y-105000000D03*
X5200000Y-105000000D03*
D33*
X12500000Y-112500000D03*
X10000000Y-112500000D03*
X7500000Y-112500000D03*
D32*
X180800000Y-85000000D03*
X171200000Y-85000000D03*
D33*
X178500000Y-92500000D03*
X176000000Y-92500000D03*
X173500000Y-92500000D03*
D32*
X165800000Y-85000000D03*
X156200000Y-85000000D03*
D33*
X163500000Y-92500000D03*
X161000000Y-92500000D03*
X158500000Y-92500000D03*
D32*
X150800000Y-85000000D03*
X141200000Y-85000000D03*
D33*
X148500000Y-92500000D03*
X146000000Y-92500000D03*
X143500000Y-92500000D03*
D32*
X135850000Y-85000000D03*
X126250000Y-85000000D03*
D33*
X133550000Y-92500000D03*
X131050000Y-92500000D03*
X128550000Y-92500000D03*
D32*
X190800000Y-57500000D03*
X181200000Y-57500000D03*
D33*
X188500000Y-65000000D03*
X186000000Y-65000000D03*
X183500000Y-65000000D03*
D32*
X190800000Y-27500000D03*
X181200000Y-27500000D03*
D33*
X188500000Y-35000000D03*
X186000000Y-35000000D03*
X183500000Y-35000000D03*
D32*
X165800000Y-65000000D03*
X156200000Y-65000000D03*
D33*
X163500000Y-72500000D03*
X161000000Y-72500000D03*
X158500000Y-72500000D03*
D32*
X165800000Y-50000000D03*
X156200000Y-50000000D03*
D33*
X163500000Y-57500000D03*
X161000000Y-57500000D03*
X158500000Y-57500000D03*
D32*
X165800000Y-35000000D03*
X156200000Y-35000000D03*
D33*
X163500000Y-42500000D03*
X161000000Y-42500000D03*
X158500000Y-42500000D03*
D32*
X165800000Y-20000000D03*
X156200000Y-20000000D03*
D33*
X163500000Y-27500000D03*
X161000000Y-27500000D03*
X158500000Y-27500000D03*
D32*
X140800000Y-50000000D03*
X131200000Y-50000000D03*
D33*
X138500000Y-57500000D03*
X136000000Y-57500000D03*
X133500000Y-57500000D03*
D32*
X140800000Y-35000000D03*
X131200000Y-35000000D03*
D33*
X138500000Y-42500000D03*
X136000000Y-42500000D03*
X133500000Y-42500000D03*
D32*
X140800000Y-20000000D03*
X131200000Y-20000000D03*
D33*
X138500000Y-27500000D03*
X136000000Y-27500000D03*
X133500000Y-27500000D03*
D32*
X95800000Y-75000000D03*
X86200000Y-75000000D03*
D33*
X93500000Y-82500000D03*
X91000000Y-82500000D03*
X88500000Y-82500000D03*
D32*
X14800000Y-75000000D03*
X5200000Y-75000000D03*
D33*
X12500000Y-82500000D03*
X10000000Y-82500000D03*
X7500000Y-82500000D03*
D32*
X115800000Y-50000000D03*
X106200000Y-50000000D03*
D33*
X113500000Y-57500000D03*
X111000000Y-57500000D03*
X108500000Y-57500000D03*
D32*
X115800000Y-35000000D03*
X106200000Y-35000000D03*
D33*
X113500000Y-42500000D03*
X111000000Y-42500000D03*
X108500000Y-42500000D03*
D32*
X115800000Y-20000000D03*
X106200000Y-20000000D03*
D33*
X113500000Y-27500000D03*
X111000000Y-27500000D03*
X108500000Y-27500000D03*
D32*
X95800000Y-50000000D03*
X86200000Y-50000000D03*
D33*
X93500000Y-57500000D03*
X91000000Y-57500000D03*
X88500000Y-57500000D03*
D32*
X95800000Y-35000000D03*
X86200000Y-35000000D03*
D33*
X93500000Y-42500000D03*
X91000000Y-42500000D03*
X88500000Y-42500000D03*
D32*
X95800000Y-20000000D03*
X86200000Y-20000000D03*
D33*
X93500000Y-27500000D03*
X91000000Y-27500000D03*
X88500000Y-27500000D03*
D32*
X14800000Y-35000000D03*
X5200000Y-35000000D03*
D33*
X12500000Y-42500000D03*
X10000000Y-42500000D03*
X7500000Y-42500000D03*
D34*
X18730000Y-20500000D03*
D35*
X21270000Y-20500000D03*
D34*
X23730000Y-20500000D03*
D35*
X26270000Y-20500000D03*
D34*
X28730000Y-20500000D03*
D35*
X31270000Y-20500000D03*
D34*
X33730000Y-20500000D03*
D35*
X36270000Y-20500000D03*
D34*
X38730000Y-20500000D03*
D35*
X41270000Y-20500000D03*
D34*
X18730000Y-60500000D03*
D35*
X21270000Y-60500000D03*
D34*
X23730000Y-60500000D03*
D35*
X26270000Y-60500000D03*
D34*
X28730000Y-60500000D03*
D35*
X31270000Y-60500000D03*
D34*
X33730000Y-60500000D03*
D35*
X36270000Y-60500000D03*
D34*
X38730000Y-60500000D03*
D35*
X41270000Y-60500000D03*
D34*
X41270000Y-97500000D03*
D35*
X38730000Y-97500000D03*
D34*
X41270000Y-102500000D03*
D35*
X38730000Y-102500000D03*
D34*
X41270000Y-107500000D03*
D35*
X38730000Y-107500000D03*
D34*
X41270000Y-112500000D03*
D35*
X38730000Y-112500000D03*
D34*
X66270000Y-97500000D03*
D35*
X63730000Y-97500000D03*
D34*
X66270000Y-102500000D03*
D35*
X63730000Y-102500000D03*
D34*
X66270000Y-107500000D03*
D35*
X63730000Y-107500000D03*
D34*
X66270000Y-112500000D03*
D35*
X63730000Y-112500000D03*
D34*
X41270000Y-127500000D03*
D35*
X38730000Y-127500000D03*
D34*
X41270000Y-132500000D03*
D35*
X38730000Y-132500000D03*
D34*
X41270000Y-137500000D03*
D35*
X38730000Y-137500000D03*
D34*
X41270000Y-142500000D03*
D35*
X38730000Y-142500000D03*
D34*
X63730000Y-130000000D03*
D35*
X66270000Y-130000000D03*
D34*
X63730000Y-135000000D03*
D35*
X66270000Y-135000000D03*
D34*
X63730000Y-140000000D03*
D35*
X66270000Y-140000000D03*
D34*
X83730000Y-130000000D03*
D35*
X86270000Y-130000000D03*
D34*
X83730000Y-135000000D03*
D35*
X86270000Y-135000000D03*
D34*
X83730000Y-140000000D03*
D35*
X86270000Y-140000000D03*
D34*
X189730000Y-97000000D03*
D35*
X192270000Y-97000000D03*
D36*
X37000000Y-11500000D03*
X44500000Y-11500000D03*
X29500000Y-11500000D03*
X32000000Y-14000000D03*
X42000000Y-14000000D03*
X32000000Y-1500000D03*
X42000000Y-1500000D03*
X59000000Y-11500000D03*
X66500000Y-11500000D03*
X51500000Y-11500000D03*
X54000000Y-14000000D03*
X64000000Y-14000000D03*
X54000000Y-1500000D03*
X64000000Y-1500000D03*
X15000000Y-11500000D03*
X22500000Y-11500000D03*
X7500000Y-11500000D03*
X10000000Y-14000000D03*
X20000000Y-14000000D03*
X10000000Y-1500000D03*
X20000000Y-1500000D03*
D35*
X139650000Y-128810000D03*
X142190000Y-128810000D03*
X144730000Y-128810000D03*
X147270000Y-128810000D03*
X149810000Y-128810000D03*
X152350000Y-128810000D03*
X152350000Y-121190000D03*
X149810000Y-121190000D03*
X147270000Y-121190000D03*
X144730000Y-121190000D03*
X142190000Y-121190000D03*
X139650000Y-121190000D03*
D27*
X79750000Y-144250000D03*
X76000000Y-22000000D03*
M02*
